Coordinates
version=1
nRows=10
nColumns=40
inDegrees=yes

Units are S.I. units (second, meters, Newtons, ...)
If the header above contains a line with 'inDegrees', this indicates whether rotational values are in degrees (yes) or radians (no).

endheader
time	pelvis_tilt	pelvis_list	pelvis_rotation	pelvis_tx	pelvis_ty	pelvis_tz	hip_flexion_r	hip_adduction_r	hip_rotation_r	knee_angle_r	knee_angle_r_beta	ankle_angle_r	subtalar_angle_r	mtp_angle_r	hip_flexion_l	hip_adduction_l	hip_rotation_l	knee_angle_l	knee_angle_l_beta	ankle_angle_l	subtalar_angle_l	mtp_angle_l	lumbar_extension	lumbar_bending	lumbar_rotation	arm_flex_r	arm_add_r	arm_rot_r	elbow_flex_r	pro_sup_r	wrist_flex_r	wrist_dev_r	arm_flex_l	arm_add_l	arm_rot_l	elbow_flex_l	pro_sup_l	wrist_flex_l	wrist_dev_l
      4.08500000	      3.73615083	     -0.32842197	      2.94388434	     -0.24086140	      1.50881895	     -0.84615743	    -12.47943581	     -9.61714948	    -11.78070309	      2.00856225	      0.03505602	    -37.05439065	      0.00000000	      0.00000000	    -10.81581535	    -11.28222832	     -7.56746493	      2.13937079	      0.03733906	    -33.18980643	      0.00000000	      0.00000000	     -7.56423249	     -2.44224570	     -0.10907982	    -45.48900892	    -52.29214480	     18.50669649	    113.17496638	     87.14586217	      0.00000000	      0.00000000	    -27.06048440	    -59.45497691	     48.63605820	    103.23062597	     88.14475507	      0.00000000	      0.00000000
      4.09000000	      3.50404981	     -0.42557457	      3.02052629	     -0.24164658	      1.50759743	     -0.84634326	    -12.19353178	     -9.53883773	    -10.76641952	      2.12756026	      0.03713293	    -36.91252244	      0.00000000	      0.00000000	    -10.50965401	    -11.31289182	     -6.90511440	      2.23681679	      0.03903982	    -33.09576444	      0.00000000	      0.00000000	     -7.36181571	     -2.32677421	     -0.21369088	    -45.45376379	    -52.10754168	     18.45369593	    113.14036712	     87.15694837	      0.00000000	      0.00000000	    -27.86238652	    -59.09488061	     47.64787497	    103.07181085	     88.15217422	      0.00000000	      0.00000000
      4.09500000	      3.26229826	     -0.49375372	      3.09991780	     -0.24225205	      1.50614319	     -0.84648719	    -11.90571653	     -9.48157501	     -9.89306187	      2.26589119	      0.03954726	    -36.73224929	      0.00000000	      0.00000000	    -10.17716897	    -11.32385390	     -6.44205892	      2.35158209	      0.04104285	    -33.04590589	      0.00000000	      0.00000000	     -7.12439376	     -2.25314714	     -0.24173950	    -45.50504445	    -51.83250270	     18.21885970	    113.02380140	     87.24177371	      0.00000000	      0.00000000	    -28.46968764	    -58.83614815	     46.90709491	    102.93288249	     88.14544161	      0.00000000	      0.00000000
      4.10000000	      3.09125927	     -0.54014818	      3.23896190	     -0.24315827	      1.50458668	     -0.84674114	    -11.69915948	     -9.44114511	     -8.97395045	      2.41654672	      0.04217670	    -36.57563229	      0.00000000	      0.00000000	     -9.85366712	    -11.31907431	     -5.86983812	      2.55338040	      0.04456490	    -33.08952736	      0.00000000	      0.00000000	     -7.01314414	     -2.17664985	     -0.22285193	    -45.66925290	    -51.46318583	     17.87055191	    112.94053979	     87.33359109	      0.00000000	      0.00000000	    -28.60687009	    -58.65751747	     46.67277432	    102.78868966	     88.10764171	      0.00000000	      0.00000000
      4.10500000	      2.86760353	     -0.56622743	      3.34603477	     -0.24394764	      1.50263485	     -0.84690772	    -11.41185562	     -9.43177955	     -8.17551492	      2.61495210	      0.04563952	    -36.39529007	      0.00000000	      0.00000000	     -9.48840411	    -11.28970492	     -5.35003188	      2.72982804	      0.04764449	    -32.98605168	      0.00000000	      0.00000000	     -6.82042658	     -2.13775772	     -0.20776801	    -45.87367138	    -51.12177518	     17.39868956	    112.85173797	     87.32785285	      0.00000000	      0.00000000	    -28.85546404	    -58.48378381	     46.32785096	    102.66217718	     88.10893834	      0.00000000	      0.00000000
      4.11000000	      2.70553077	     -0.60673188	      3.49721433	     -0.24475792	      1.50041949	     -0.84719784	    -11.22149203	     -9.39966034	     -7.30666996	      2.79725181	      0.04882125	    -36.12695914	      0.00000000	      0.00000000	     -9.14700286	    -11.29567720	     -4.92023590	      2.98289216	      0.05206129	    -32.80375455	      0.00000000	      0.00000000	     -6.73452117	     -2.07939754	     -0.20110272	    -46.14627448	    -50.77733976	     17.04866599	    112.86602035	     87.37791529	      0.00000000	      0.00000000	    -29.13838309	    -58.34265344	     45.92909811	    102.60753677	     88.11419553	      0.00000000	      0.00000000
      4.11500000	      2.51408060	     -0.70923980	      3.64234237	     -0.24570635	      1.49800553	     -0.84735467	    -10.97798656	     -9.30010780	     -6.41814943	      2.99159561	      0.05221319	    -35.85621379	      0.00000000	      0.00000000	     -8.78038221	    -11.36335469	     -4.28261875	      3.21816171	      0.05616752	    -32.82154218	      0.00000000	      0.00000000	     -6.60223921	     -1.97228094	     -0.21486754	    -46.27702719	    -50.45138306	     16.70002393	    112.83181700	     87.39207729	      0.00000000	      0.00000000	    -29.37745726	    -58.17941449	     45.59428661	    102.49465008	     88.11549200	      0.00000000	      0.00000000
      4.12000000	      2.47208361	     -0.72545327	      3.79498314	     -0.24671788	      1.49545475	     -0.84761892	    -10.89217556	     -9.28686444	     -5.67284987	      3.20391256	      0.05591882	    -35.49571244	      0.00000000	      0.00000000	     -8.51611305	    -11.35804365	     -4.01674215	      3.54271263	      0.06183200	    -32.57340005	      0.00000000	      0.00000000	     -6.69279430	     -1.93008376	     -0.24453757	    -46.44190573	    -50.15980581	     16.23591058	    112.79643300	     87.36960187	      0.00000000	      0.00000000	    -29.70156255	    -58.05469771	     45.17245852	    102.45205119	     88.11844136	      0.00000000	      0.00000000
      4.12500000	      2.47329637	     -0.78474534	      4.00818392	     -0.24766850	      1.49275684	     -0.84794610	    -10.86288334	     -9.22140254	     -4.99178688	      3.46811816	      0.06053008	    -35.15180839	      0.00000000	      0.00000000	     -8.32271525	    -11.40732830	     -3.45934597	      3.81277020	      0.06654539	    -32.59491352	      0.00000000	      0.00000000	     -6.80634794	     -1.83435558	     -0.34979999	    -46.47075316	    -49.94084190	     16.03919739	    112.75801628	     87.36613940	      0.00000000	      0.00000000	    -29.86287797	    -57.94771647	     44.96574641	    102.40774377	     88.12377379	      0.00000000	      0.00000000
      4.13000000	      2.46272719	     -0.77411959	      4.22950729	     -0.24864270	      1.48973143	     -0.84821547	    -10.80624157	     -9.22077873	     -4.51770152	      3.70525123	      0.06466883	    -34.98254081	      0.00000000	      0.00000000	     -8.11716797	    -11.38332646	     -3.18241012	      4.01323999	      0.07004425	    -32.51404379	      0.00000000	      0.00000000	     -6.90815840	     -1.83905139	     -0.49606063	    -46.47339854	    -49.69030898	     15.90379891	    112.76522768	     87.26659851	      0.00000000	      0.00000000	    -30.00340837	    -57.91144010	     44.88858615	    102.36487929	     88.03128717	      0.00000000	      0.00000000
